<svg xmlns="http://www.w3.org/2000/svg" width="448" height="512" viewBox="0 0 448 512"><path d="M0,464a48.012,48.012,0,0,0,48,48H400a48.012,48.012,0,0,0,48-48V192H0ZM64,272a16.047,16.047,0,0,1,16-16h96a16.047,16.047,0,0,1,16,16v96a16.047,16.047,0,0,1-16,16H80a16.047,16.047,0,0,1-16-16ZM400,64H352V16A16.047,16.047,0,0,0,336,0H304a16.047,16.047,0,0,0-16,16V64H160V16A16.047,16.047,0,0,0,144,0H112A16.047,16.047,0,0,0,96,16V64H48A48.012,48.012,0,0,0,0,112v48H448V112A48.012,48.012,0,0,0,400,64Z" fill="#6e6e6e"/></svg>