<svg xmlns="http://www.w3.org/2000/svg" width="287.938" height="512" viewBox="0 0 287.938 512"><path d="M209.2,233.4l-108-31.6a29.5,29.5,0,0,1,8.3-57.8h66.3A61.04,61.04,0,0,1,210,154.5a15.589,15.589,0,0,0,19.5-2l34.8-34c7.1-6.9,6.1-18.4-1.8-24.5A141.4,141.4,0,0,0,176,64V16A16.047,16.047,0,0,0,160,0H128a16.047,16.047,0,0,0-16,16V64h-2.5A109.566,109.566,0,0,0,.5,183.6c4.2,46.1,39.4,83.6,83.8,96.6l102.5,30a29.5,29.5,0,0,1-8.3,57.8H112.2A61.04,61.04,0,0,1,78,357.5a15.589,15.589,0,0,0-19.5,2l-34.8,34c-7.1,6.9-6.1,18.4,1.8,24.5A141.4,141.4,0,0,0,112,448v48a16.047,16.047,0,0,0,16,16h32a16.047,16.047,0,0,0,16-16V447.8c46.6-.9,90.3-28.6,105.7-72.7,21.5-61.6-14.6-124.8-72.5-141.7Z" transform="translate(-0.036)" fill="#6e6e6e"/></svg>