<svg xmlns="http://www.w3.org/2000/svg" width="640" height="384.139" viewBox="0 0 640 384.139"><path d="M434.7,64H348.8a31.987,31.987,0,0,0-21.6,8.4l-98.3,90c-.1.1-.2.3-.3.4a39.779,39.779,0,0,0-2.1,56c12.7,13.9,39.4,17.6,56.1,2.7.1-.1.3-.1.4-.2l79.9-73.2a16,16,0,1,1,21.6,23.6l-26.1,23.9L504,313.8a72.046,72.046,0,0,1,7.9,7.7V128L457.3,73.4A31.769,31.769,0,0,0,434.7,64ZM544,128.2V352.1a31.966,31.966,0,0,0,32,32h64V128.2Zm48,223.9a16,16,0,1,1,16-16A16.047,16.047,0,0,1,592,352.1ZM0,384H64a31.966,31.966,0,0,0,32-32V128.2H0Zm48-63.9a16,16,0,1,1-16,16A16.047,16.047,0,0,1,48,320.1Zm435.9,18.6L334.6,217.5l-30,27.5a71.98,71.98,0,1,1-97.3-106.1L289.1,64H205.3a31.943,31.943,0,0,0-22.6,9.4L128,128V351.9h18.3l90.5,81.9a63.987,63.987,0,0,0,90-9.3l.2-.2,17.9,15.5a37.163,37.163,0,0,0,52.3-5.4l31.4-38.6,5.4,4.4a31.95,31.95,0,0,0,45-4.7l9.5-11.7a32.058,32.058,0,0,0-4.6-45.1Z" transform="translate(0 -64)" fill="#6e6e6e"/></svg>